<svg xmlns="http://www.w3.org/2000/svg" xmlns:xlink="http://www.w3.org/1999/xlink" contentStyleType="text/css" data-diagram-type="CLASS" height="455px" preserveAspectRatio="none" style="width:462px;height:455px;background:#FFFFFF;" version="1.1" viewBox="0 0 462 455" width="462px" zoomAndPan="magnify"><?plantuml 1.2026.6?><defs/><g><!--cluster ?? ?? ???--><g class="cluster" data-qualified-name=".. .. ..." data-source-line="2" id="ent0001"><path d="M8.5,6 L109.4077,6 A3.75,3.75 0 0 1 111.9077,8.5 L118.9077,28.2969 L444.5,28.2969 A2.5,2.5 0 0 1 447,30.7969 L447,438.09 A2.5,2.5 0 0 1 444.5,440.59 L8.5,440.59 A2.5,2.5 0 0 1 6,438.09 L6,8.5 A2.5,2.5 0 0 1 8.5,6" fill="none" style="stroke:#000000;stroke-width:1.5;"/><line style="stroke:#000000;stroke-width:1.5;" x1="6" x2="118.9077" y1="28.2969" y2="28.2969"/><text fill="#000000" font-family="sans-serif" font-size="14" font-weight="700" lengthAdjust="spacing" textLength="99.9077" x="10" y="20.9951">&#53076;&#50612; &#48197;&#53433; &#50612;&#45841;&#53552;</text></g><!--class CoreBankingClient--><g class="entity" data-qualified-name=".. .. ....CoreBankingClient" data-source-line="3" id="ent0002"><rect fill="#F1F1F1" height="72.5938" rx="2.5" ry="2.5" style="stroke:#181818;stroke-width:0.5;" width="199.8516" x="50.07" y="41"/><ellipse cx="82.079" cy="57" fill="#B4A7E5" rx="11" ry="11" style="stroke:#181818;stroke-width:1;"/><path d="M78.0009,52.7656 L78.0009,50.6094 L85.3915,50.6094 L85.3915,52.7656 L82.9228,52.7656 L82.9228,60.8438 L85.3915,60.8438 L85.3915,63 L78.0009,63 L78.0009,60.8438 L80.4697,60.8438 L80.4697,52.7656 L78.0009,52.7656 Z " fill="#000000"/><text fill="#000000" font-family="sans-serif" font-size="14" font-style="italic" lengthAdjust="spacing" textLength="130.0537" x="99.8588" y="61.8467">CoreBankingClient</text><line style="stroke:#181818;stroke-width:0.5;" x1="51.07" x2="248.9216" y1="73" y2="73"/><g data-visibility-modifier="PUBLIC_METHOD"><ellipse cx="61.07" cy="86.6484" fill="#84BE84" rx="3" ry="3" style="stroke:#038048;stroke-width:1;"/></g><text fill="#000000" font-family="sans-serif" font-size="14" lengthAdjust="spacing" textLength="173.8516" x="70.07" y="89.9951">getAccount(id) : Account</text><g data-visibility-modifier="PUBLIC_METHOD"><ellipse cx="61.07" cy="102.9453" fill="#84BE84" rx="3" ry="3" style="stroke:#038048;stroke-width:1;"/></g><text fill="#000000" font-family="sans-serif" font-size="14" lengthAdjust="spacing" textLength="146.9727" x="70.07" y="106.292">transfer(req) : Result</text></g><!--class CoreBankingAdapter--><g class="entity" data-qualified-name=".. .. ....CoreBankingAdapter" data-source-line="7" id="ent0003"><rect fill="#F1F1F1" height="32" rx="2.5" ry="2.5" style="stroke:#181818;stroke-width:0.5;" width="177.3115" x="61.34" y="174.59"/><ellipse cx="76.34" cy="190.59" fill="#ADD1B2" rx="11" ry="11" style="stroke:#181818;stroke-width:1;"/><path d="M79.3088,196.2306 Q78.7306,196.5275 78.09,196.6681 Q77.4494,196.8244 76.7463,196.8244 Q74.2463,196.8244 72.9181,195.1837 Q71.6056,193.5275 71.6056,190.4025 Q71.6056,187.2775 72.9181,185.6212 Q74.2463,183.965 76.7463,183.965 Q77.4494,183.965 78.09,184.1212 Q78.7463,184.2775 79.3088,184.5744 L79.3088,187.2931 Q78.6838,186.715 78.09,186.4494 Q77.4963,186.1681 76.8713,186.1681 Q75.5275,186.1681 74.84,187.2462 Q74.1525,188.3087 74.1525,190.4025 Q74.1525,192.4962 74.84,193.5744 Q75.5275,194.6369 76.8713,194.6369 Q77.4963,194.6369 78.09,194.3712 Q78.6838,194.09 79.3088,193.5119 L79.3088,196.2306 Z " fill="#000000"/><text fill="#000000" font-family="sans-serif" font-size="14" lengthAdjust="spacing" textLength="145.3115" x="90.34" y="195.4367">CoreBankingAdapter</text></g><!--class Connection--><g class="entity" data-qualified-name=".. .. ....Connection" data-source-line="8" id="ent0004"><rect fill="#F1F1F1" height="32" rx="2.5" ry="2.5" style="stroke:#181818;stroke-width:0.5;" width="111.2148" x="94.39" y="283.59"/><ellipse cx="109.39" cy="299.59" fill="#ADD1B2" rx="11" ry="11" style="stroke:#181818;stroke-width:1;"/><path d="M112.3588,305.2306 Q111.7806,305.5275 111.14,305.6681 Q110.4994,305.8244 109.7963,305.8244 Q107.2963,305.8244 105.9681,304.1838 Q104.6556,302.5275 104.6556,299.4025 Q104.6556,296.2775 105.9681,294.6213 Q107.2963,292.965 109.7963,292.965 Q110.4994,292.965 111.14,293.1213 Q111.7963,293.2775 112.3588,293.5744 L112.3588,296.2931 Q111.7338,295.715 111.14,295.4494 Q110.5463,295.1681 109.9213,295.1681 Q108.5775,295.1681 107.89,296.2463 Q107.2025,297.3088 107.2025,299.4025 Q107.2025,301.4963 107.89,302.5744 Q108.5775,303.6369 109.9213,303.6369 Q110.5463,303.6369 111.14,303.3713 Q111.7338,303.09 112.3588,302.5119 L112.3588,305.2306 Z " fill="#000000"/><text fill="#000000" font-family="sans-serif" font-size="14" lengthAdjust="spacing" textLength="79.2148" x="123.39" y="304.4367">Connection</text></g><!--class BankAccountRequest--><g class="entity" data-qualified-name=".. .. ....BankAccountRequest" data-source-line="9" id="ent0005"><rect fill="#F1F1F1" height="32" rx="2.5" ry="2.5" style="stroke:#181818;stroke-width:0.5;" width="181.4336" x="22.28" y="392.59"/><ellipse cx="37.28" cy="408.59" fill="#ADD1B2" rx="11" ry="11" style="stroke:#181818;stroke-width:1;"/><path d="M40.2488,414.2306 Q39.6706,414.5275 39.03,414.6681 Q38.3894,414.8244 37.6863,414.8244 Q35.1863,414.8244 33.8581,413.1838 Q32.5456,411.5275 32.5456,408.4025 Q32.5456,405.2775 33.8581,403.6213 Q35.1863,401.965 37.6863,401.965 Q38.3894,401.965 39.03,402.1213 Q39.6863,402.2775 40.2488,402.5744 L40.2488,405.2931 Q39.6238,404.715 39.03,404.4494 Q38.4363,404.1681 37.8113,404.1681 Q36.4675,404.1681 35.78,405.2463 Q35.0925,406.3088 35.0925,408.4025 Q35.0925,410.4963 35.78,411.5744 Q36.4675,412.6369 37.8113,412.6369 Q38.4363,412.6369 39.03,412.3713 Q39.6238,412.09 40.2488,411.5119 L40.2488,414.2306 Z " fill="#000000"/><text fill="#000000" font-family="sans-serif" font-size="14" lengthAdjust="spacing" textLength="149.4336" x="51.28" y="413.4367">BankAccountRequest</text></g><!--class BankAccountResponse--><g class="entity" data-qualified-name=".. .. ....BankAccountResponse" data-source-line="10" id="ent0006"><rect fill="#F1F1F1" height="32" rx="2.5" ry="2.5" style="stroke:#181818;stroke-width:0.5;" width="191.8037" x="239.1" y="392.59"/><ellipse cx="254.1" cy="408.59" fill="#ADD1B2" rx="11" ry="11" style="stroke:#181818;stroke-width:1;"/><path d="M257.0688,414.2306 Q256.4906,414.5275 255.85,414.6681 Q255.2094,414.8244 254.5063,414.8244 Q252.0063,414.8244 250.6781,413.1838 Q249.3656,411.5275 249.3656,408.4025 Q249.3656,405.2775 250.6781,403.6213 Q252.0063,401.965 254.5063,401.965 Q255.2094,401.965 255.85,402.1213 Q256.5063,402.2775 257.0688,402.5744 L257.0688,405.2931 Q256.4438,404.715 255.85,404.4494 Q255.2563,404.1681 254.6313,404.1681 Q253.2875,404.1681 252.6,405.2463 Q251.9125,406.3088 251.9125,408.4025 Q251.9125,410.4963 252.6,411.5744 Q253.2875,412.6369 254.6313,412.6369 Q255.2563,412.6369 255.85,412.3713 Q256.4438,412.09 257.0688,411.5119 L257.0688,414.2306 Z " fill="#000000"/><text fill="#000000" font-family="sans-serif" font-size="14" lengthAdjust="spacing" textLength="159.8037" x="268.1" y="413.4367">BankAccountResponse</text></g><!--reverse link CoreBankingClient to CoreBankingAdapter--><g class="link" data-entity-1="ent0002" data-entity-2="ent0003" data-link-type="extension" data-source-line="12" id="lnk7"><path codeLine="12" d="M150,131.81 C150,152.17 150,158.68 150,174.2" fill="none" id="CoreBankingClient-backto-CoreBankingAdapter" style="stroke:#181818;stroke-width:1;stroke-dasharray:7,7;"/><polygon fill="none" points="150,113.81,144,131.81,156,131.81,150,113.81" style="stroke:#181818;stroke-width:1;stroke-linejoin:miter;stroke-miterlimit:10;"/></g><!--link CoreBankingAdapter to Connection--><g class="link" data-entity-1="ent0003" data-entity-2="ent0004" data-link-type="dependency" data-source-line="13" id="lnk8"><path codeLine="13" d="M150,206.92 C150,227.26 150,257.96 150,278.29" fill="none" id="CoreBankingAdapter-to-Connection" style="stroke:#181818;stroke-width:1;"/><polygon fill="#181818" points="150,283.29,154,274.29,150,278.29,146,274.29,150,283.29" style="stroke:#181818;stroke-width:1;stroke-linejoin:miter;stroke-miterlimit:10;"/><text fill="#000000" font-family="sans-serif" font-size="13" lengthAdjust="spacing" textLength="23.92" x="151" y="249.6569">&#49324;&#50857;</text></g><!--link Connection to BankAccountRequest--><g class="link" data-entity-1="ent0004" data-entity-2="ent0005" data-link-type="dependency" data-source-line="14" id="lnk9"><path codeLine="14" d="M144.7,315.92 C137.67,336.26 126.954,367.2345 119.924,387.5645" fill="none" id="Connection-to-BankAccountRequest" style="stroke:#181818;stroke-width:1;"/><polygon fill="#181818" points="118.29,392.29,125.0116,385.0914,119.924,387.5645,117.4509,382.477,118.29,392.29" style="stroke:#181818;stroke-width:1;stroke-linejoin:miter;stroke-miterlimit:10;"/><text fill="#000000" font-family="sans-serif" font-size="13" lengthAdjust="spacing" textLength="23.92" x="134.72" y="358.6569">&#49373;&#49457;</text></g><!--link Connection to BankAccountResponse--><g class="link" data-entity-1="ent0004" data-entity-2="ent0006" data-link-type="dependency" data-source-line="15" id="lnk10"><path codeLine="15" d="M176.51,315.92 C211.57,336.2 268.7216,369.257 303.9116,389.607" fill="none" id="Connection-to-BankAccountResponse" style="stroke:#181818;stroke-width:1;"/><polygon fill="#181818" points="308.24,392.11,302.4514,384.1418,303.9116,389.607,298.4465,391.0672,308.24,392.11" style="stroke:#181818;stroke-width:1;stroke-linejoin:miter;stroke-miterlimit:10;"/><text fill="#000000" font-family="sans-serif" font-size="13" lengthAdjust="spacing" textLength="23.92" x="254.58" y="358.6569">&#48152;&#54872;</text></g><?plantuml-src XOz1IWCn58RtSuf7LnLf3r14gBr1Rv1c_ewXCs-cIMOXjfjQTsu4aIfu0C552svSUAB9tC6aBMLW2Yu2oVzzvFtlLiKWP8MzempP1Df4XP0paO0wxlV5lNvJjNkiLp_ahzNJSxtUTkW-8b9ieQT2WaQvnetWcU9ab2gmtNEYomHsA6LUiksg-886T7mTgDM2pHIwgp4FS0nJfe4j_P6fCARvyp0MXH_OGCoGLkLyYe9vd336l8Invv4fSZQ8F6mtlrhq--V7jaFgzQuRFVmARlNbtZ_tyYaDKhjPa1y-t7htZtpewkrgkwdVDj7o3m00?></g></svg>