<svg xmlns="http://www.w3.org/2000/svg" xmlns:xlink="http://www.w3.org/1999/xlink" contentStyleType="text/css" data-diagram-type="DESCRIPTION" height="195px" preserveAspectRatio="none" style="width:754px;height:195px;background:#FFFFFF;" version="1.1" viewBox="0 0 754 195" width="754px" zoomAndPan="magnify"><?plantuml 1.2026.6?><defs/><g><g class="title" data-source-line="6"><text fill="#000000" font-family="sans-serif" font-size="14" font-weight="700" lengthAdjust="spacing" textLength="254.1973" x="246.4805" y="22.9951">&#54620; &#54028;&#54000;&#49496; &#47196;&#44536;&#51032; &#50724;&#54532;&#49483; &#8212; &#49464; &#50948;&#52824;&#47484; &#44396;&#48516;</text></g><!--entity m97--><g class="entity" data-qualified-name="m97" data-source-line="8" id="ent0001"><rect fill="#F4F6FB" height="36.2969" rx="2.5" ry="2.5" style="stroke:#556080;stroke-width:0.5;" width="46.7148" x="43.21" y="44.2969"/><text fill="#000000" font-family="sans-serif" font-size="14" lengthAdjust="spacing" textLength="26.7148" x="53.21" y="67.292">..97</text></g><!--entity m98--><g class="entity" data-qualified-name="m98" data-source-line="9" id="ent0002"><rect fill="#F4F6FB" height="36.2969" rx="2.5" ry="2.5" style="stroke:#556080;stroke-width:0.5;" width="37.8145" x="124.66" y="44.2969"/><text fill="#000000" font-family="sans-serif" font-size="14" lengthAdjust="spacing" textLength="17.8145" x="134.66" y="67.292">98</text></g><!--entity m99--><g class="entity" data-qualified-name="m99" data-source-line="10" id="ent0003"><rect fill="#F4F6FB" height="36.2969" rx="2.5" ry="2.5" style="stroke:#556080;stroke-width:0.5;" width="37.8145" x="252.66" y="44.2969"/><text fill="#000000" font-family="sans-serif" font-size="14" lengthAdjust="spacing" textLength="17.8145" x="262.66" y="67.292">99</text></g><!--entity m100--><g class="entity" data-qualified-name="m100" data-source-line="11" id="ent0004"><rect fill="#F4F6FB" height="36.2969" rx="2.5" ry="2.5" style="stroke:#556080;stroke-width:0.5;" width="46.7217" x="460.21" y="44.2969"/><text fill="#000000" font-family="sans-serif" font-size="14" lengthAdjust="spacing" textLength="26.7217" x="470.21" y="67.292">100</text></g><!--entity m101--><g class="entity" data-qualified-name="m101" data-source-line="12" id="ent0005"><rect fill="#F4F6FB" height="36.2969" rx="2.5" ry="2.5" style="stroke:#556080;stroke-width:0.5;" width="46.7217" x="601.21" y="44.2969"/><text fill="#000000" font-family="sans-serif" font-size="14" lengthAdjust="spacing" textLength="26.7217" x="611.21" y="67.292">101</text></g><g class="entity" data-qualified-name="GMN10" data-source-line="19" id="ent0011"><path d="M6,140.5869 L6,180.8525 A0,0 0 0 0 6,180.8525 L169.1406,180.8525 A0,0 0 0 0 169.1406,180.8525 L169.1406,150.5869 L159.1406,140.5869 L102.84,140.5869 L133.56,80.6569 L94.84,140.5869 L6,140.5869 A0,0 0 0 0 6,140.5869" fill="#FEFFDD" style="stroke:#181818;stroke-width:0.5;"/><path d="M159.1406,140.5869 L159.1406,150.5869 L169.1406,150.5869 L159.1406,140.5869" fill="#FEFFDD" style="stroke:#181818;stroke-width:0.5;"/><text fill="#000000" font-family="sans-serif" font-size="13" lengthAdjust="spacing" textLength="63.9324" x="51.1041" y="157.6538">&#52964;&#48139; &#50724;&#54532;&#49483;</text><text fill="#000000" font-family="sans-serif" font-size="13" lengthAdjust="spacing" textLength="142.1406" x="12" y="172.7866">(&#44536;&#47353;&#51060; &#52376;&#47532; &#50756;&#47308;&#47196; &#44592;&#47197;)</text></g><g class="entity" data-qualified-name="GMN13" data-source-line="20" id="ent0014"><path d="M204.27,140.5869 L204.27,180.8525 A0,0 0 0 0 204.27,180.8525 L338.8781,180.8525 A0,0 0 0 0 338.8781,180.8525 L338.8781,150.5869 L328.8781,140.5869 L275.57,140.5869 L271.57,80.6569 L267.57,140.5869 L204.27,140.5869 A0,0 0 0 0 204.27,140.5869" fill="#FEFFDD" style="stroke:#181818;stroke-width:0.5;"/><path d="M328.8781,140.5869 L328.8781,150.5869 L338.8781,150.5869 L328.8781,140.5869" fill="#FEFFDD" style="stroke:#181818;stroke-width:0.5;"/><text fill="#000000" font-family="sans-serif" font-size="13" lengthAdjust="spacing" textLength="113.6081" x="210.27" y="157.6538">&#54788;&#51116; &#50948;&#52824;(position)</text><text fill="#000000" font-family="sans-serif" font-size="13" lengthAdjust="spacing" textLength="99.3068" x="217.4206" y="172.7866">(&#45796;&#51020; fetch &#51648;&#51216;)</text></g><g class="entity" data-qualified-name="GMN16" data-source-line="21" id="ent0017"><path d="M373.82,140.5869 L373.82,180.8525 A0,0 0 0 0 373.82,180.8525 L593.3288,180.8525 A0,0 0 0 0 593.3288,180.8525 L593.3288,150.5869 L583.3288,140.5869 L487.57,140.5869 L483.57,80.6569 L479.57,140.5869 L373.82,140.5869 A0,0 0 0 0 373.82,140.5869" fill="#FEFFDD" style="stroke:#181818;stroke-width:0.5;"/><path d="M583.3288,140.5869 L583.3288,150.5869 L593.3288,150.5869 L583.3288,140.5869" fill="#FEFFDD" style="stroke:#181818;stroke-width:0.5;"/><text fill="#000000" font-family="sans-serif" font-size="13" lengthAdjust="spacing" textLength="22.6294" x="467.7597" y="157.6538">HW</text><text fill="#000000" font-family="sans-serif" font-size="13" lengthAdjust="spacing" textLength="198.5088" x="379.82" y="172.7866">(ISR&#44032; &#48373;&#51228;&#54620; &#45149; = &#51069;&#44592; &#44032;&#45733; &#54620;&#44228;)</text></g><g class="entity" data-qualified-name="GMN19" data-source-line="22" id="ent0020"><path d="M627.99,140.5869 L627.99,180.8525 A0,0 0 0 0 627.99,180.8525 L739.1582,180.8525 A0,0 0 0 0 739.1582,180.8525 L739.1582,150.5869 L729.1582,140.5869 L675.69,140.5869 L635.12,80.6569 L667.69,140.5869 L627.99,140.5869 A0,0 0 0 0 627.99,140.5869" fill="#FEFFDD" style="stroke:#181818;stroke-width:0.5;"/><path d="M729.1582,140.5869 L729.1582,150.5869 L739.1582,150.5869 L729.1582,140.5869" fill="#FEFFDD" style="stroke:#181818;stroke-width:0.5;"/><text fill="#000000" font-family="sans-serif" font-size="13" lengthAdjust="spacing" textLength="25.689" x="666.2296" y="157.6538">LEO</text><text fill="#000000" font-family="sans-serif" font-size="13" lengthAdjust="spacing" textLength="90.1682" x="633.99" y="172.7866">(&#45796;&#51020;&#50640; &#50424; &#50948;&#52824;)</text></g><!--link m97 to m98--><!--link m98 to m99--><!--link m99 to m100--><!--link m100 to m101--><?plantuml-src RP7FIm915CVl-rSywf87HI7B5Jfa90L1K467wh2veoxfZAmJ114Oh9Vq86IqWHjALXSFalqmgd-cuyxR_w7PCYtqC8_XysQ-tyVt5GyCMj1CBGywIMk7ERv5ZlXYpiZGFA4SKh8GKoaENvaanJMQoH4uLW0IMkeWOx93gY-n73DXEZcRd4ic_0upTM8EQ3Gw5uw5bHE56rp-z2uQu5MhNgMBPHj4g-6-zD6n0UssLxUmN87FKXtGwWCsB7ornUqxk4yTyMmfoiX_AXHIvwT0Aq9UdV_BrTY0nlvHTK3LlpGI3lzWUVdF8xyyeYZI088xMKFN2TqpZKoM1x_bvPd0LSdLSUux-6LIHtfGnWdiCyvP7bZQbuSuu5jRT2kZO7RfZCnAtBoYymZuO8kx3k2L9MwgCaLm-rtHSWBZKggKycmBhpk3H6SAh6XmWz60L1ILDZfLI1EUoWBUbx1P6zVm1u_3ohPylxgvuNPB87fFs6puknId3Ym0EXzo090jSNRhxzZjMPDq8b9dRNbzQ8oNDS3ptrq7lW00?></g></svg>