<svg xmlns="http://www.w3.org/2000/svg" xmlns:xlink="http://www.w3.org/1999/xlink" contentStyleType="text/css" data-diagram-type="ACTIVITY" height="420px" preserveAspectRatio="none" style="width:255px;height:420px;background:#FFFFFF;" version="1.1" viewBox="0 0 255 420" width="255px" zoomAndPan="magnify"><?plantuml 1.2026.6?><defs/><g><ellipse cx="125.5928" cy="25" fill="#222222" rx="10" ry="10" style="stroke:#222222;stroke-width:1;"/><rect fill="#F1F1F1" height="33.9688" rx="12.5" ry="12.5" style="stroke:#181818;stroke-width:0.5;" width="81.4317" x="84.877" y="55"/><text fill="#000000" font-family="sans-serif" font-size="12" lengthAdjust="spacing" textLength="61.4317" x="94.877" y="76.1387">.hprof &#50676;&#44592;</text><rect fill="#F1F1F1" height="33.9688" rx="12.5" ry="12.5" style="stroke:#181818;stroke-width:0.5;" width="169.0442" x="41.0707" y="108.9688"/><text fill="#000000" font-family="sans-serif" font-size="12" lengthAdjust="spacing" textLength="149.0442" x="51.0707" y="130.1074">Leak Suspects &#51088;&#46041; &#47532;&#54252;&#53944;</text><rect fill="#F1F1F1" height="33.9688" rx="12.5" ry="12.5" style="stroke:#181818;stroke-width:0.5;" width="195.887" x="27.6493" y="162.9375"/><text fill="#000000" font-family="sans-serif" font-size="12" lengthAdjust="spacing" textLength="175.887" x="37.6493" y="184.0762">Dominator Tree &#50976;&#51648; &#53356;&#44592; &#53360; &#49692;</text><rect fill="#F1F1F1" height="33.9688" rx="12.5" ry="12.5" style="stroke:#181818;stroke-width:0.5;" width="193.0541" x="29.0658" y="216.9063"/><text fill="#000000" font-family="sans-serif" font-size="12" lengthAdjust="spacing" textLength="173.0541" x="39.0658" y="238.0449">Histogram &#53364;&#47000;&#49828;&#48324; &#51064;&#49828;&#53556;&#49828; &#49688;</text><rect fill="#F1F1F1" height="33.9688" rx="12.5" ry="12.5" style="stroke:#181818;stroke-width:0.5;" width="219.1856" x="16" y="270.875"/><text fill="#000000" font-family="sans-serif" font-size="12" lengthAdjust="spacing" textLength="199.1856" x="26" y="292.0137">Path to GC Roots (soft/weak &#51228;&#50808;)</text><rect fill="#F1F1F1" height="33.9688" rx="12.5" ry="12.5" style="stroke:#181818;stroke-width:0.5;" width="93.8694" x="78.6581" y="324.8438"/><text fill="#000000" font-family="sans-serif" font-size="12" lengthAdjust="spacing" textLength="73.8694" x="88.6581" y="345.9824">&#50896;&#51064; &#53076;&#46300; &#53945;&#51221;</text><ellipse cx="125.5928" cy="389.8125" fill="none" rx="11" ry="11" style="stroke:#222222;stroke-width:1;"/><ellipse cx="125.5928" cy="389.8125" fill="#222222" rx="6" ry="6" style="stroke:#222222;stroke-width:1;"/><line style="stroke:#181818;stroke-width:1;" x1="125.5928" x2="125.5928" y1="35" y2="55"/><polygon fill="#181818" points="121.5928,45,125.5928,55,129.5928,45,125.5928,49" style="stroke:#181818;stroke-width:1;stroke-linejoin:miter;stroke-miterlimit:10;"/><line style="stroke:#181818;stroke-width:1;" x1="125.5928" x2="125.5928" y1="88.9688" y2="108.9688"/><polygon fill="#181818" points="121.5928,98.9688,125.5928,108.9688,129.5928,98.9688,125.5928,102.9688" style="stroke:#181818;stroke-width:1;stroke-linejoin:miter;stroke-miterlimit:10;"/><line style="stroke:#181818;stroke-width:1;" x1="125.5928" x2="125.5928" y1="142.9375" y2="162.9375"/><polygon fill="#181818" points="121.5928,152.9375,125.5928,162.9375,129.5928,152.9375,125.5928,156.9375" style="stroke:#181818;stroke-width:1;stroke-linejoin:miter;stroke-miterlimit:10;"/><line style="stroke:#181818;stroke-width:1;" x1="125.5928" x2="125.5928" y1="196.9063" y2="216.9063"/><polygon fill="#181818" points="121.5928,206.9063,125.5928,216.9063,129.5928,206.9063,125.5928,210.9063" style="stroke:#181818;stroke-width:1;stroke-linejoin:miter;stroke-miterlimit:10;"/><line style="stroke:#181818;stroke-width:1;" x1="125.5928" x2="125.5928" y1="250.875" y2="270.875"/><polygon fill="#181818" points="121.5928,260.875,125.5928,270.875,129.5928,260.875,125.5928,264.875" style="stroke:#181818;stroke-width:1;stroke-linejoin:miter;stroke-miterlimit:10;"/><line style="stroke:#181818;stroke-width:1;" x1="125.5928" x2="125.5928" y1="304.8438" y2="324.8438"/><polygon fill="#181818" points="121.5928,314.8438,125.5928,324.8438,129.5928,314.8438,125.5928,318.8438" style="stroke:#181818;stroke-width:1;stroke-linejoin:miter;stroke-miterlimit:10;"/><line style="stroke:#181818;stroke-width:1;" x1="125.5928" x2="125.5928" y1="358.8125" y2="378.8125"/><polygon fill="#181818" points="121.5928,368.8125,125.5928,378.8125,129.5928,368.8125,125.5928,372.8125" style="stroke:#181818;stroke-width:1;stroke-linejoin:miter;stroke-miterlimit:10;"/><?plantuml-src 5Own2i9044JxVCMMscXlIWKjB4JzWKEY2H8lt9tOAgIGD0eg6emXXMYJ8c2AMFX3tju_k3Qpo_266QcOK5QhuGQ2Jm7FvRSgRAlLTzWSHaiPE1Cb0TEztiMW7xdPvIQg2EXmtrimnGMCXUC09Xa-rs0sEUNf583RXB2U9nMV2UQJL-hqWj5TlqB0MqMV2KjI8Yz43fXoGN7ejc78EPNM99-gvke_1BC4uwfE55xtb0Ny7FKX0HEzCJlP5dK4Fm00?></g></svg>