<svg xmlns="http://www.w3.org/2000/svg" xmlns:xlink="http://www.w3.org/1999/xlink" contentStyleType="text/css" data-diagram-type="DESCRIPTION" height="372px" preserveAspectRatio="none" style="width:514px;height:372px;background:#FFFFFF;" version="1.1" viewBox="0 0 514 372" width="514px" zoomAndPan="magnify"><?plantuml 1.2026.6?><defs/><g><g class="title" data-source-line="1"><text fill="#000000" font-family="sans-serif" font-size="14" font-weight="700" lengthAdjust="spacing" textLength="251.8983" x="127.5675" y="22.9951">&#48156;&#54665; &#8594; &#50672;&#49328;&#51088; &#8594; &#44396;&#46021; &#8212; &#54028;&#51060;&#54532;&#46972;&#51064; &#44396;&#51312;</text></g><!--entity P--><g class="entity" data-qualified-name="P" data-source-line="3" id="ent0001"><rect fill="#EEF3FB" height="52.5938" rx="2.5" ry="2.5" style="stroke:#181818;stroke-width:0.5;" width="125.6515" x="52.29" y="44.2969"/><text fill="#000000" font-family="sans-serif" font-size="14" lengthAdjust="spacing" textLength="105.6515" x="62.29" y="67.292">Publisher (&#49548;&#49828;)</text><text fill="#000000" font-family="sans-serif" font-size="14" lengthAdjust="spacing" textLength="103.9982" x="63.1166" y="83.5889">DB&#183;HTTP&#183;&#51060;&#48292;&#53944;</text></g><!--entity OP--><g class="entity" data-qualified-name="OP" data-source-line="4" id="ent0002"><rect fill="#FFF3E0" height="52.5938" rx="2.5" ry="2.5" style="stroke:#181818;stroke-width:0.5;" width="162.8027" x="33.71" y="175.2969"/><text fill="#000000" font-family="sans-serif" font-size="14" lengthAdjust="spacing" textLength="68.8499" x="80.6864" y="198.292">&#50672;&#49328;&#51088; &#45800;&#44228;</text><text fill="#000000" font-family="sans-serif" font-size="14" lengthAdjust="spacing" textLength="142.8027" x="43.71" y="214.5889">map &#183; filter &#183; flatMap</text></g><!--entity S--><g class="entity" data-qualified-name="S" data-source-line="5" id="ent0003"><rect fill="#E9F2E9" height="52.5938" rx="2.5" ry="2.5" style="stroke:#181818;stroke-width:0.5;" width="216.2256" x="7" y="306.2969"/><text fill="#000000" font-family="sans-serif" font-size="14" lengthAdjust="spacing" textLength="145.8831" x="42.1713" y="329.292">Subscriber (&#52572;&#51333; &#49548;&#48708;)</text><text fill="#000000" font-family="sans-serif" font-size="14" lengthAdjust="spacing" textLength="196.2256" x="17" y="345.5889">onNext&#183;onComplete&#183;onError</text></g><g class="entity" data-qualified-name="GMN10" data-source-line="13" id="ent0011"><path d="M231.2,173.8969 L231.2,197.5969 L196.66,201.5969 L231.2,205.5969 L231.2,229.2953 A0,0 0 0 0 231.2,229.2953 L499.0333,229.2953 A0,0 0 0 0 499.0333,229.2953 L499.0333,183.8969 L489.0333,173.8969 L231.2,173.8969 A0,0 0 0 0 231.2,173.8969" fill="#FEFFDD" style="stroke:#181818;stroke-width:0.5;"/><path d="M489.0333,173.8969 L489.0333,183.8969 L499.0333,183.8969 L489.0333,173.8969" fill="#FEFFDD" style="stroke:#181818;stroke-width:0.5;"/><text fill="#000000" font-family="sans-serif" font-size="13" lengthAdjust="spacing" textLength="132.0173" x="294.608" y="190.9638">&#44396;&#46021;&#54616;&#47732; request(n)&#51060;</text><text fill="#000000" font-family="sans-serif" font-size="13" lengthAdjust="spacing" textLength="182.9009" x="269.1662" y="206.0966">&#44396;&#46021;&#51088; &#8594; &#49548;&#49828;&#47196; "&#50948;&#47196;" &#51204;&#54028;&#46104;&#44256;</text><text fill="#000000" font-family="sans-serif" font-size="13" lengthAdjust="spacing" textLength="246.8333" x="237.2" y="221.2294">&#45936;&#51060;&#53552;&#45716; &#49548;&#49828; &#8594; &#44396;&#46021;&#51088;&#47196; "&#50500;&#47000;&#47196;" &#51204;&#45804;&#46108;&#45796;</text></g><!--link P to OP--><g class="link" data-entity-1="ent0001" data-entity-2="ent0002" data-link-type="dependency" data-source-line="7" id="lnk4"><path d="M52.13,96.3369 C39.74,104.1969 28.35,114.2369 21.11,126.8969 C9.94,146.4269 20.7964,160.143 41.9964,172.343" fill="none" id="P-to-OP" style="stroke:#181818;stroke-width:1;"/><polygon fill="#181818" points="46.33,174.8369,40.5245,166.881,41.9964,172.343,36.5343,173.8148,46.33,174.8369" style="stroke:#181818;stroke-width:1;stroke-linejoin:miter;stroke-miterlimit:10;"/><text fill="#000000" font-family="sans-serif" font-size="13" lengthAdjust="spacing" textLength="141.0066" x="22.11" y="139.9638">onNext (&#45936;&#51060;&#53552;, &#50500;&#47000;&#47196;)</text></g><!--reverse link P to OP--><g class="link" data-entity-1="ent0001" data-entity-2="ent0002" data-link-type="dependency" data-source-line="10" id="lnk9"><path d="M154.1901,100.5466 C167.7201,113.5866 174.85,126.8169 168.11,143.8969 C163.51,155.5469 155.26,166.2169 146.62,175.0869" fill="none" id="P-backto-OP" style="stroke:#181818;stroke-width:1;"/><polygon fill="#181818" points="150.59,97.0769,154.2944,106.2025,154.1901,100.5466,159.846,100.4423,150.59,97.0769" style="stroke:#181818;stroke-width:1;stroke-linejoin:miter;stroke-miterlimit:10;"/><text fill="#000000" font-family="sans-serif" font-size="13" lengthAdjust="spacing" textLength="134.3332" x="171.18" y="139.9638">request(n) (&#50948;&#47196; &#51204;&#54028;)</text></g><!--link OP to S--><g class="link" data-entity-1="ent0002" data-entity-2="ent0003" data-link-type="dependency" data-source-line="8" id="lnk5"><path d="M48.08,228.3869 C27.18,240.6369 12.13,256.8769 23.11,276.2969 C29.99,288.4569 36.5667,295.4831 48.3267,303.2431" fill="none" id="OP-to-S" style="stroke:#181818;stroke-width:1;"/><polygon fill="#181818" points="52.5,305.9969,47.1911,297.7014,48.3267,303.2431,42.785,304.3787,52.5,305.9969" style="stroke:#181818;stroke-width:1;stroke-linejoin:miter;stroke-miterlimit:10;"/><text fill="#000000" font-family="sans-serif" font-size="13" lengthAdjust="spacing" textLength="136.8743" x="24.11" y="272.3638">onNext (&#48320;&#54872;&#46108; &#45936;&#51060;&#53552;)</text></g><!--reverse link OP to S--><g class="link" data-entity-1="ent0002" data-entity-2="ent0003" data-link-type="dependency" data-source-line="9" id="lnk7"><path d="M147.9909,231.7814 C156.2409,240.7214 160.75,247.7569 165.11,259.2969 C171.48,276.1369 161.35,292.8169 148.59,305.8969" fill="none" id="OP-backto-S" style="stroke:#181818;stroke-width:1;"/><polygon fill="#181818" points="144.6,228.1069,147.764,237.4337,147.9909,231.7814,153.6432,232.0082,144.6,228.1069" style="stroke:#181818;stroke-width:1;stroke-linejoin:miter;stroke-miterlimit:10;"/><text fill="#000000" font-family="sans-serif" font-size="13" lengthAdjust="spacing" textLength="138.4655" x="168.07" y="272.3638">request(n) (&#49688;&#50836;, &#50948;&#47196;)</text></g><?plantuml-src PPBDQjj058NtynGNTsD13ILP9Oj2qqfaqyHWBxEHxR4ZAe_KqOXs6O8IKjkbfZYDKkIG52yQo4B42KwXApzAbfxHE-HA_eaWcs66UyvtpymTOGcRWeoZvDStU3p-2UeiLeUnkkXdfzdzZVnn18y70qXwFJMyImQ17FvNmuUqfAvYudsoc6joimqDsZHzMrJfL_7EjbgiJPc0EYwK4qxhmcGjR5Ke-pNRylOfXw8wxgdEIDjZ7xQca-rgjJoTO0jvEqew3mKmFIZ3ArqtresjFE0veUp-dOs3FTOsNPXEe6dPs2lRsQRuQBePOnSXXc6iws_oa8fVy-hSgcKnxYFrvmWmZVmNO1g7xU0TfXE7lNVQhaq5JVSwvmxFY1LCjM6iwHk4bA7KSBwmqjkqpIRCdL2Kt-FqhOBuDQZJG5w4yYhIoEwpkf8NZm-Iyr3s8rZPD5A1akykiPn-zgadYap3i2UX-Zr0RXIie9doXJ0JWBeCS78Q8SmH5BZLsXVWD95BO37Tv3IKrtSvBsPO5PSVOJwg55YOWmiBiko7i_4bwbVXPMUmaEU-47BcvkLpP7xPlS5xo-w8KDQ0DE4J?></g></svg>