<svg xmlns="http://www.w3.org/2000/svg" xmlns:xlink="http://www.w3.org/1999/xlink" contentStyleType="text/css" data-diagram-type="ACTIVITY" height="414px" preserveAspectRatio="none" style="width:721px;height:414px;background:#FFFFFF;" version="1.1" viewBox="0 0 721 414" width="721px" zoomAndPan="magnify"><?plantuml 1.2026.6?><defs/><g><g class="title" data-source-line="2"><text fill="#000000" font-family="sans-serif" font-size="14" font-weight="700" lengthAdjust="spacing" textLength="231.1887" x="243.9905" y="32.9951">Redis Cluster failover &#54032;&#45800; &#55120;&#47492;</text></g><ellipse cx="234.2531" cy="62.2969" fill="#222222" rx="10" ry="10" style="stroke:#222222;stroke-width:1;"/><rect fill="#F1F1F1" height="33.9688" rx="12.5" ry="12.5" style="stroke:#181818;stroke-width:0.5;" width="241.2661" x="113.6201" y="92.2969"/><text fill="#000000" font-family="sans-serif" font-size="12" lengthAdjust="spacing" textLength="221.2661" x="123.6201" y="113.4355">&#47560;&#49828;&#53552;&#44032; NODE_TIMEOUT &#46041;&#50504; &#51025;&#45813; &#50630;&#51020;</text><rect fill="#F1F1F1" height="33.9688" rx="12.5" ry="12.5" style="stroke:#181818;stroke-width:0.5;" width="156.1401" x="156.1831" y="146.2656"/><text fill="#000000" font-family="sans-serif" font-size="12" lengthAdjust="spacing" textLength="136.1401" x="166.1831" y="167.4043">&#44284;&#48152; &#47560;&#49828;&#53552;&#44032; FAIL&#47196; &#54633;&#51032;</text><polygon fill="#F1F1F1" points="165.3695,200.2344,303.1367,200.2344,315.1367,212.2344,303.1367,224.2344,165.3695,224.2344,153.3695,212.2344,165.3695,200.2344" style="stroke:#181818;stroke-width:0.5;stroke-linejoin:miter;stroke-miterlimit:10;"/><text fill="#000000" font-family="sans-serif" font-size="11" lengthAdjust="spacing" textLength="137.7672" x="165.3695" y="216.0425">&#49849;&#44201; &#44032;&#45733;&#54620; &#47112;&#54540;&#47532;&#52852;&#44032; &#51080;&#45208;?</text><text fill="#000000" font-family="sans-serif" font-size="11" lengthAdjust="spacing" textLength="20.2398" x="133.1297" y="209.6401">&#50630;&#51020;</text><text fill="#000000" font-family="sans-serif" font-size="11" lengthAdjust="spacing" textLength="20.2398" x="315.1367" y="209.6401">&#51080;&#51020;</text><rect fill="#F1F1F1" height="33.9688" rx="12.5" ry="12.5" style="stroke:#181818;stroke-width:0.5;" width="126.9897" x="16" y="234.2344"/><text fill="#000000" font-family="sans-serif" font-size="12" lengthAdjust="spacing" textLength="106.9897" x="26" y="255.373">&#47560;&#49828;&#53552;&#47532;&#49828; &#49836;&#47215; &#48156;&#49373;</text><ellipse cx="79.4948" cy="314.2031" fill="none" rx="11" ry="11" style="stroke:#222222;stroke-width:1;"/><ellipse cx="79.4948" cy="314.2031" fill="#222222" rx="6" ry="6" style="stroke:#222222;stroke-width:1;"/><polygon fill="#F1F1F1" points="310.0079,234.2344,468.0149,234.2344,480.0149,247.0391,468.0149,259.8438,310.0079,259.8438,298.0079,247.0391,310.0079,234.2344" style="stroke:#181818;stroke-width:0.5;stroke-linejoin:miter;stroke-miterlimit:10;"/><text fill="#000000" font-family="sans-serif" font-size="11" lengthAdjust="spacing" textLength="158.007" x="310.0079" y="244.4448">&#47112;&#54540;&#47532;&#52852; &#45936;&#51060;&#53552;&#44032; &#45320;&#47924; &#50724;&#47000;&#46096;&#45208;?</text><text fill="#000000" font-family="sans-serif" font-size="11" lengthAdjust="spacing" textLength="108.7393" x="334.6417" y="257.2495">(validity-factor &#52488;&#44284;)</text><text fill="#000000" font-family="sans-serif" font-size="11" lengthAdjust="spacing" textLength="10.1199" x="287.888" y="244.4448">&#50696;</text><text fill="#000000" font-family="sans-serif" font-size="11" lengthAdjust="spacing" textLength="30.3598" x="480.0149" y="244.4448">&#50500;&#45768;&#50724;</text><rect fill="#F1F1F1" height="33.9688" rx="12.5" ry="12.5" style="stroke:#181818;stroke-width:0.5;" width="155.7133" x="172.9897" y="269.8438"/><text fill="#000000" font-family="sans-serif" font-size="12" lengthAdjust="spacing" textLength="135.7133" x="182.9897" y="290.9824">&#49849;&#44201; &#48520;&#44032; &#8594; &#49836;&#47215; &#48120;&#49436;&#48708;&#49828;</text><ellipse cx="250.8463" cy="349.8125" fill="none" rx="11" ry="11" style="stroke:#222222;stroke-width:1;"/><ellipse cx="250.8463" cy="349.8125" fill="#222222" rx="6" ry="6" style="stroke:#222222;stroke-width:1;"/><polygon fill="#F1F1F1" points="463.3528,269.8438,591,269.8438,603,281.8438,591,293.8438,463.3528,293.8438,451.3528,281.8438,463.3528,269.8438" style="stroke:#181818;stroke-width:0.5;stroke-linejoin:miter;stroke-miterlimit:10;"/><text fill="#000000" font-family="sans-serif" font-size="11" lengthAdjust="spacing" textLength="127.6472" x="463.3528" y="285.6519">&#44284;&#48152; &#47560;&#49828;&#53552;&#44032; &#53804;&#54364;&#54644; &#51452;&#45208;?</text><text fill="#000000" font-family="sans-serif" font-size="11" lengthAdjust="spacing" textLength="81.3292" x="370.0236" y="279.2495">&#50500;&#45768;&#50724;, &#44284;&#48152; &#48120;&#45804;</text><text fill="#000000" font-family="sans-serif" font-size="11" lengthAdjust="spacing" textLength="10.1199" x="603" y="279.2495">&#50696;</text><rect fill="#F1F1F1" height="33.9688" rx="12.5" ry="12.5" style="stroke:#181818;stroke-width:0.5;" width="155.7133" x="358.703" y="303.8438"/><text fill="#000000" font-family="sans-serif" font-size="12" lengthAdjust="spacing" textLength="135.7133" x="368.703" y="324.9824">&#49849;&#44201; &#49892;&#54056; &#8594; &#49836;&#47215; &#48120;&#49436;&#48708;&#49828;</text><ellipse cx="436.5597" cy="383.8125" fill="none" rx="11" ry="11" style="stroke:#222222;stroke-width:1;"/><ellipse cx="436.5597" cy="383.8125" fill="#222222" rx="6" ry="6" style="stroke:#222222;stroke-width:1;"/><rect fill="#F1F1F1" height="33.9688" rx="12.5" ry="12.5" style="stroke:#181818;stroke-width:0.5;" width="166.7534" x="534.4164" y="303.8438"/><text fill="#000000" font-family="sans-serif" font-size="12" lengthAdjust="spacing" textLength="146.7534" x="544.4164" y="324.9824">&#47112;&#54540;&#47532;&#52852; &#49849;&#44201; &#8594; &#49436;&#48708;&#49828; &#51648;&#49549;</text><ellipse cx="617.7931" cy="383.8125" fill="none" rx="11" ry="11" style="stroke:#222222;stroke-width:1;"/><ellipse cx="617.7931" cy="383.8125" fill="#222222" rx="6" ry="6" style="stroke:#222222;stroke-width:1;"/><line style="stroke:#181818;stroke-width:1;" x1="234.2531" x2="234.2531" y1="72.2969" y2="92.2969"/><polygon fill="#181818" points="230.2531,82.2969,234.2531,92.2969,238.2531,82.2969,234.2531,86.2969" style="stroke:#181818;stroke-width:1;stroke-linejoin:miter;stroke-miterlimit:10;"/><line style="stroke:#181818;stroke-width:1;" x1="234.2531" x2="234.2531" y1="126.2656" y2="146.2656"/><polygon fill="#181818" points="230.2531,136.2656,234.2531,146.2656,238.2531,136.2656,234.2531,140.2656" style="stroke:#181818;stroke-width:1;stroke-linejoin:miter;stroke-miterlimit:10;"/><line style="stroke:#181818;stroke-width:1;" x1="79.4948" x2="79.4948" y1="268.2031" y2="303.2031"/><polygon fill="#181818" points="75.4948,293.2031,79.4948,303.2031,83.4948,293.2031,79.4948,297.2031" style="stroke:#181818;stroke-width:1;stroke-linejoin:miter;stroke-miterlimit:10;"/><line style="stroke:#181818;stroke-width:1;" x1="250.8463" x2="250.8463" y1="303.8125" y2="338.8125"/><polygon fill="#181818" points="246.8463,328.8125,250.8463,338.8125,254.8463,328.8125,250.8463,332.8125" style="stroke:#181818;stroke-width:1;stroke-linejoin:miter;stroke-miterlimit:10;"/><line style="stroke:#181818;stroke-width:1;" x1="436.5597" x2="436.5597" y1="337.8125" y2="372.8125"/><polygon fill="#181818" points="432.5597,362.8125,436.5597,372.8125,440.5597,362.8125,436.5597,366.8125" style="stroke:#181818;stroke-width:1;stroke-linejoin:miter;stroke-miterlimit:10;"/><line style="stroke:#181818;stroke-width:1;" x1="617.7931" x2="617.7931" y1="337.8125" y2="372.8125"/><polygon fill="#181818" points="613.7931,362.8125,617.7931,372.8125,621.7931,362.8125,617.7931,366.8125" style="stroke:#181818;stroke-width:1;stroke-linejoin:miter;stroke-miterlimit:10;"/><line style="stroke:#181818;stroke-width:1;" x1="451.3528" x2="436.5597" y1="281.8438" y2="281.8438"/><line style="stroke:#181818;stroke-width:1;" x1="436.5597" x2="436.5597" y1="281.8438" y2="303.8438"/><polygon fill="#181818" points="432.5597,293.8438,436.5597,303.8438,440.5597,293.8438,436.5597,297.8438" style="stroke:#181818;stroke-width:1;stroke-linejoin:miter;stroke-miterlimit:10;"/><line style="stroke:#181818;stroke-width:1;" x1="603" x2="617.7931" y1="281.8438" y2="281.8438"/><line style="stroke:#181818;stroke-width:1;" x1="617.7931" x2="617.7931" y1="281.8438" y2="303.8438"/><polygon fill="#181818" points="613.7931,293.8438,617.7931,303.8438,621.7931,293.8438,617.7931,297.8438" style="stroke:#181818;stroke-width:1;stroke-linejoin:miter;stroke-miterlimit:10;"/><line style="stroke:#181818;stroke-width:1;" x1="298.0079" x2="250.8463" y1="247.0391" y2="247.0391"/><line style="stroke:#181818;stroke-width:1;" x1="250.8463" x2="250.8463" y1="247.0391" y2="269.8438"/><polygon fill="#181818" points="246.8463,259.8438,250.8463,269.8438,254.8463,259.8438,250.8463,263.8438" style="stroke:#181818;stroke-width:1;stroke-linejoin:miter;stroke-miterlimit:10;"/><line style="stroke:#181818;stroke-width:1;" x1="480.0149" x2="527.1764" y1="247.0391" y2="247.0391"/><line style="stroke:#181818;stroke-width:1;" x1="527.1764" x2="527.1764" y1="247.0391" y2="269.8438"/><polygon fill="#181818" points="523.1764,259.8438,527.1764,269.8438,531.1764,259.8438,527.1764,263.8438" style="stroke:#181818;stroke-width:1;stroke-linejoin:miter;stroke-miterlimit:10;"/><line style="stroke:#181818;stroke-width:1;" x1="153.3695" x2="79.4948" y1="212.2344" y2="212.2344"/><line style="stroke:#181818;stroke-width:1;" x1="79.4948" x2="79.4948" y1="212.2344" y2="234.2344"/><polygon fill="#181818" points="75.4948,224.2344,79.4948,234.2344,83.4948,224.2344,79.4948,228.2344" style="stroke:#181818;stroke-width:1;stroke-linejoin:miter;stroke-miterlimit:10;"/><line style="stroke:#181818;stroke-width:1;" x1="315.1367" x2="389.0114" y1="212.2344" y2="212.2344"/><line style="stroke:#181818;stroke-width:1;" x1="389.0114" x2="389.0114" y1="212.2344" y2="234.2344"/><polygon fill="#181818" points="385.0114,224.2344,389.0114,234.2344,393.0114,224.2344,389.0114,228.2344" style="stroke:#181818;stroke-width:1;stroke-linejoin:miter;stroke-miterlimit:10;"/><line style="stroke:#181818;stroke-width:1;" x1="234.2531" x2="234.2531" y1="180.2344" y2="200.2344"/><polygon fill="#181818" points="230.2531,190.2344,234.2531,200.2344,238.2531,190.2344,234.2531,194.2344" style="stroke:#181818;stroke-width:1;stroke-linejoin:miter;stroke-miterlimit:10;"/><?plantuml-src VP3VIjn05CRlvodEfGls1ToB8jQ2O2kKxPqWmPsqWp4hcr7QEz6m3CbArzBG2CbIwTO_4DZGReiBFaqlzvnvXqvYiYejlJapp9pl-txdU3l2tREwrYwqkMtjExB5tybbHxnnTxahOTiKtcLII8V3AzuM7gmu-vvv0ziIJkV0N7H_WE4Lw7I05pvZdhIwaYtXfQ9WfFrybX_2ourdgrkjjHUh6wzRW1_EA590wIc6Fu4-zoZjDzdIxCSjvZ4yqZrVNbl7ymHqT4rft6J2XWKAfhFlrs2-CVYcemJmYzAV-dYHqNHIY6Yey2X-sW3vbhkclmneC81xfg8v60456PwF0VE4ZjEcwV1aPuznn-D6DbILh0Xzc05uabCwgH3HLvXDWE8H3cCS38heJNVXm794MyZtJsnhMtQwG1Db1cpCeM9LM1kcQXpyfGgttxsFSwhn3Va9Jdr3sYnxIpg0YY_oCLGcziwdWFpN1hNAz6cY8qFuzVRHMchz8jIwyGs6sPtTFHY58zs_-Z_O76qELuzNBFtXwYhJqgts0BeyfDx9trPkMzYiFilw1m00?></g></svg>