<svg xmlns="http://www.w3.org/2000/svg" xmlns:xlink="http://www.w3.org/1999/xlink" contentStyleType="text/css" data-diagram-type="DESCRIPTION" height="376px" preserveAspectRatio="none" style="width:609px;height:376px;background:#FFFFFF;" version="1.1" viewBox="0 0 609 376" width="609px" zoomAndPan="magnify"><?plantuml 1.2026.6?><defs/><g><!--cluster ?? Kafka ? ???? ??? ??--><g class="cluster" data-qualified-name=".. Kafka . .... ... .." data-source-line="11" id="ent0001"><path d="M8.5,6 L234.694,6 A3.75,3.75 0 0 1 237.194,8.5 L244.194,28.2969 L261.5,28.2969 A2.5,2.5 0 0 1 264,30.7969 L264,354.48 A2.5,2.5 0 0 1 261.5,356.98 L8.5,356.98 A2.5,2.5 0 0 1 6,354.48 L6,8.5 A2.5,2.5 0 0 1 8.5,6" fill="none" style="stroke:#000000;stroke-width:1.5;"/><line style="stroke:#000000;stroke-width:1.5;" x1="6" x2="244.194" y1="28.2969" y2="28.2969"/><text fill="#000000" font-family="sans-serif" font-size="14" font-weight="700" lengthAdjust="spacing" textLength="225.194" x="10" y="20.9951">&#44592;&#51316; Kafka &#8212; &#48652;&#47196;&#52964;&#44032; &#46356;&#49828;&#53356; &#49548;&#50976;</text></g><!--cluster Diskless Kafka ? ???? ????? ??--><g class="cluster" data-qualified-name="Diskless Kafka . .... ..... .." data-source-line="19" id="ent0007"><path d="M290.5,6 L581.7175,6 A3.75,3.75 0 0 1 584.2175,8.5 L591.2175,28.2969 L591.5,28.2969 A2.5,2.5 0 0 1 594,30.7969 L594,358.98 A2.5,2.5 0 0 1 591.5,361.48 L290.5,361.48 A2.5,2.5 0 0 1 288,358.98 L288,8.5 A2.5,2.5 0 0 1 290.5,6" fill="none" style="stroke:#000000;stroke-width:1.5;"/><line style="stroke:#000000;stroke-width:1.5;" x1="288" x2="591.2175" y1="28.2969" y2="28.2969"/><text fill="#000000" font-family="sans-serif" font-size="14" font-weight="700" lengthAdjust="spacing" textLength="290.2175" x="292" y="20.9951">Diskless Kafka &#8212; &#50724;&#48652;&#51229;&#53944; &#49828;&#53664;&#47532;&#51648;&#50640; &#51649;&#51217;</text></g><!--entity p1--><g class="entity" data-qualified-name=".. Kafka . .... ... ...p1" data-source-line="12" id="ent0002"><rect fill="#F4F6FB" height="36.2969" rx="2.5" ry="2.5" style="stroke:#556080;stroke-width:0.5;" width="71.5198" x="46.24" y="41"/><text fill="#000000" font-family="sans-serif" font-size="14" lengthAdjust="spacing" textLength="51.5198" x="56.24" y="63.9951">&#54532;&#47196;&#46272;&#49436;</text></g><!--entity b1--><g class="entity" data-qualified-name=".. Kafka . .... ... ...b1" data-source-line="13" id="ent0003"><rect fill="#F4F6FB" height="52.5938" rx="2.5" ry="2.5" style="stroke:#556080;stroke-width:0.5;" width="120.84" x="21.58" y="154.29"/><text fill="#000000" font-family="sans-serif" font-size="14" lengthAdjust="spacing" textLength="100.84" x="31.58" y="177.2851">&#48652;&#47196;&#52964; A (AZ-a)</text><text fill="#000000" font-family="sans-serif" font-size="14" lengthAdjust="spacing" textLength="68.8499" x="47.5751" y="193.582">&#47196;&#52972; &#46356;&#49828;&#53356;</text></g><!--entity b2--><g class="entity" data-qualified-name=".. Kafka . .... ... ...b2" data-source-line="14" id="ent0004"><rect fill="#F4F6FB" height="52.5938" rx="2.5" ry="2.5" style="stroke:#556080;stroke-width:0.5;" width="119.9855" x="22.01" y="288.39"/><text fill="#000000" font-family="sans-serif" font-size="14" lengthAdjust="spacing" textLength="99.9855" x="32.01" y="311.3851">&#48652;&#47196;&#52964; B (AZ-c)</text><text fill="#000000" font-family="sans-serif" font-size="14" lengthAdjust="spacing" textLength="38.6398" x="62.6829" y="327.682">&#48373;&#51228;&#48376;</text></g><!--entity p2--><g class="entity" data-qualified-name="Diskless Kafka . .... ..... ...p2" data-source-line="20" id="ent0008"><rect fill="#F4F6FB" height="36.2969" rx="2.5" ry="2.5" style="stroke:#556080;stroke-width:0.5;" width="75.97" x="348.02" y="41"/><text fill="#000000" font-family="sans-serif" font-size="14" lengthAdjust="spacing" textLength="51.5198" x="358.02" y="63.9951">&#54532;&#47196;&#46272;&#49436;</text></g><!--entity b3--><g class="entity" data-qualified-name="Diskless Kafka . .... ..... ...b3" data-source-line="21" id="ent0009"><rect fill="#F4F6FB" height="52.5938" rx="2.5" ry="2.5" style="stroke:#556080;stroke-width:0.5;" width="114.8764" x="328.56" y="154.29"/><text fill="#000000" font-family="sans-serif" font-size="14" lengthAdjust="spacing" textLength="94.8764" x="338.56" y="177.2851">&#48652;&#47196;&#52964;/&#50640;&#51060;&#51204;&#53944;</text><text fill="#000000" font-family="sans-serif" font-size="14" lengthAdjust="spacing" textLength="66.8938" x="352.5513" y="193.582">(&#49345;&#53468; &#50630;&#51020;)</text></g><!--entity s3--><g class="entity" data-qualified-name="Diskless Kafka . .... ..... ...s3" data-source-line="22" id="ent0010"><path d="M328.56,293.89 C328.56,283.89 415.0041,283.89 415.0041,283.89 C415.0041,283.89 501.4482,283.89 501.4482,293.89 L501.4482,335.4838 C501.4482,345.4838 415.0041,345.4838 415.0041,345.4838 C415.0041,345.4838 328.56,345.4838 328.56,335.4838 L328.56,293.89" fill="#E9F2E9" style="stroke:#556080;stroke-width:0.5;"/><path d="M328.56,293.89 C328.56,303.89 415.0041,303.89 415.0041,303.89 C415.0041,303.89 501.4482,303.89 501.4482,293.89" fill="none" style="stroke:#556080;stroke-width:0.5;"/><text fill="#000000" font-family="sans-serif" font-size="14" lengthAdjust="spacing" textLength="140.6577" x="344.6753" y="320.8851">&#50724;&#48652;&#51229;&#53944; &#49828;&#53664;&#47532;&#51648; (S3)</text><text fill="#000000" font-family="sans-serif" font-size="14" lengthAdjust="spacing" textLength="152.8882" x="338.56" y="337.182">&#47680;&#54000; AZ &#45236;&#44396;&#49457; &#44592;&#48376; &#51228;&#44277;</text></g><!--link p1 to b1--><g class="link" data-entity-1="ent0002" data-entity-2="ent0003" data-link-type="dependency" data-source-line="15" id="lnk5"><path d="M82,77.77 C82,97.89 82,125.97 82,148.94" fill="none" id="p1-to-b1" style="stroke:#181818;stroke-width:1;"/><polygon fill="#181818" points="82,153.94,86,144.94,82,148.94,78,144.94,82,153.94" style="stroke:#181818;stroke-width:1;stroke-linejoin:miter;stroke-miterlimit:10;"/><text fill="#000000" font-family="sans-serif" font-size="13" lengthAdjust="spacing" textLength="23.92" x="83" y="120.3569">&#50416;&#44592;</text></g><!--link b1 to b2--><g class="link" data-entity-1="ent0003" data-entity-2="ent0004" data-link-type="dependency" data-source-line="16" id="lnk6"><path d="M82,207.37 C82,230.65 82,259.71 82,282.97" fill="none" id="b1-to-b2" style="stroke:#181818;stroke-width:1;"/><polygon fill="#181818" points="82,287.97,86,278.97,82,282.97,78,278.97,82,287.97" style="stroke:#181818;stroke-width:1;stroke-linejoin:miter;stroke-miterlimit:10;"/><text fill="#000000" font-family="sans-serif" font-size="13" lengthAdjust="spacing" textLength="189.9892" x="83" y="249.9569">&#48373;&#51228; = &#53356;&#47196;&#49828; AZ &#53944;&#47000;&#54589; (&#48708;&#50857;&#8593;)</text></g><!--link p2 to b3--><g class="link" data-entity-1="ent0008" data-entity-2="ent0009" data-link-type="dependency" data-source-line="23" id="lnk11"><path d="M386,77.77 C386,97.89 386,125.97 386,148.94" fill="none" id="p2-to-b3" style="stroke:#181818;stroke-width:1;"/><polygon fill="#181818" points="386,153.94,390,144.94,386,148.94,382,144.94,386,153.94" style="stroke:#181818;stroke-width:1;stroke-linejoin:miter;stroke-miterlimit:10;"/><text fill="#000000" font-family="sans-serif" font-size="13" lengthAdjust="spacing" textLength="23.92" x="387" y="120.3569">&#50416;&#44592;</text></g><!--link b3 to s3--><g class="link" data-entity-1="ent0009" data-entity-2="ent0010" data-link-type="dependency" data-source-line="24" id="lnk12"><path d="M388.47,207.21 C390.08,221.12 392.53,238.56 396,253.89 C398.21,263.66 399.7575,269.3706 402.7875,278.7806" fill="none" id="b3-to-s3" style="stroke:#181818;stroke-width:1;"/><polygon fill="#181818" points="404.32,283.54,405.369,273.7472,402.7875,278.7806,397.754,276.1992,404.32,283.54" style="stroke:#181818;stroke-width:1;stroke-linejoin:miter;stroke-miterlimit:10;"/><text fill="#000000" font-family="sans-serif" font-size="13" lengthAdjust="spacing" textLength="186.2853" x="397" y="249.9569">&#51649;&#51217; &#51200;&#51109; (&#48652;&#47196;&#52964; &#44036; &#48373;&#51228; &#48520;&#54596;&#50836;)</text></g><?plantuml-src VP51IzjW6CVl_HGFsQKzb6awPGusQ9szUDnEukLj-rfAOnhoHXWC8TLGHjV3n8WoKedGJOGUCjfAPUpBUCpxv3lu977L7k8bXt_Ut_zzdjyhsYtTO2RRXmRVOmUQzPb_iSfQgwdlSzs2EdsucHEBKoQlMqnlQXo-vW0ghDvkcfq3lR7PqJeclAg-gQvNA_6VZjdWvcEwjhQ-ydObT_Yify4iLcCYesPhewfkRMJMv0m2M9E34iu3l9h2DjjhCxYtNP3pWRpoyEye36oGhelzKTGT0_O6wFbASjlJ2ahaEdHQdjheU0em0SRgye557PGXNzufiiAkdWJZf_84h6M2bGIin-1aXhud9_EKK8amLg5O_40ql0Cy3MWT2ckFeKfXoi1xe8lYmZvDiWDHVoulBoBt7-JbdOC_R-vx9uKbCHzRegrn8PwfmOiHJON-a6Y8H-_vylSOhsqy_m5utKN_v4L1a1fICnPzJJKudABlKF-kdiVZRdJi0PxtS3Wef2kNY5syl98v4EG_bM9VDtRqFOZtbKVJS3P6vm-G8H88v2ISp99I4PSQQggijEInb8GY2PFzYBFnyXTPMpnF63Z_9SlRRz4PsNH9vGC0?></g></svg>