<svg xmlns="http://www.w3.org/2000/svg" xmlns:xlink="http://www.w3.org/1999/xlink" contentStyleType="text/css" data-diagram-type="ACTIVITY" height="420px" preserveAspectRatio="none" style="width:254px;height:420px;background:#FFFFFF;" version="1.1" viewBox="0 0 254 420" width="254px" zoomAndPan="magnify"><?plantuml 1.2026.6?><defs/><g><ellipse cx="111.9783" cy="25" fill="#222222" rx="10" ry="10" style="stroke:#222222;stroke-width:1;"/><rect fill="#F1F1F1" height="33.9688" rx="12.5" ry="12.5" style="stroke:#181818;stroke-width:0.5;" width="113.054" x="55.4513" y="55"/><text fill="#000000" font-family="sans-serif" font-size="12" lengthAdjust="spacing" textLength="93.054" x="65.4513" y="76.1387">&#47785;&#54364; - &#48260;&#44536; &#44256;&#52824;&#44592;</text><rect fill="#F1F1F1" height="33.9688" rx="12.5" ry="12.5" style="stroke:#181818;stroke-width:0.5;" width="132.4486" x="45.754" y="152.9688"/><text fill="#000000" font-family="sans-serif" font-size="12" lengthAdjust="spacing" textLength="112.4486" x="55.754" y="174.1074">LLM&#51060; &#45796;&#51020; &#54665;&#46041; &#44208;&#51221;</text><rect fill="#F1F1F1" height="33.9688" rx="12.5" ry="12.5" style="stroke:#181818;stroke-width:0.5;" width="191.9566" x="16" y="214.4375"/><text fill="#000000" font-family="sans-serif" font-size="12" lengthAdjust="spacing" textLength="171.9566" x="26" y="235.5762">&#46020;&#44396; &#49892;&#54665; (&#54028;&#51068; &#51069;&#44592;&#183;&#49688;&#51221;&#183;&#53580;&#49828;&#53944;)</text><polygon fill="#F1F1F1" points="111.9783,108.9688,123.9783,120.9688,111.9783,132.9688,99.9783,120.9688,111.9783,108.9688" style="stroke:#181818;stroke-width:0.5;stroke-linejoin:miter;stroke-miterlimit:10;"/><polygon fill="#F1F1F1" points="87.071,268.4063,136.8856,268.4063,148.8856,280.4063,136.8856,292.4063,87.071,292.4063,75.071,280.4063,87.071,268.4063" style="stroke:#181818;stroke-width:0.5;stroke-linejoin:miter;stroke-miterlimit:10;"/><text fill="#000000" font-family="sans-serif" font-size="11" lengthAdjust="spacing" textLength="10.1199" x="115.9783" y="302.6167">&#50696;</text><text fill="#000000" font-family="sans-serif" font-size="11" lengthAdjust="spacing" textLength="49.8146" x="87.071" y="284.2144">&#47785;&#54364; &#45804;&#49457;?</text><text fill="#000000" font-family="sans-serif" font-size="11" lengthAdjust="spacing" textLength="30.3598" x="148.8856" y="277.812">&#50500;&#45768;&#50724;</text><rect fill="#F1F1F1" height="33.9688" rx="12.5" ry="12.5" style="stroke:#181818;stroke-width:0.5;" width="42.0802" x="90.9382" y="324.1167"/><text fill="#000000" font-family="sans-serif" font-size="12" lengthAdjust="spacing" textLength="22.0802" x="100.9382" y="345.2554">&#50756;&#47308;</text><ellipse cx="111.9783" cy="389.0854" fill="none" rx="11" ry="11" style="stroke:#222222;stroke-width:1;"/><ellipse cx="111.9783" cy="389.0854" fill="#222222" rx="6" ry="6" style="stroke:#222222;stroke-width:1;"/><line style="stroke:#181818;stroke-width:1;" x1="111.9783" x2="111.9783" y1="35" y2="55"/><polygon fill="#181818" points="107.9783,45,111.9783,55,115.9783,45,111.9783,49" style="stroke:#181818;stroke-width:1;stroke-linejoin:miter;stroke-miterlimit:10;"/><line style="stroke:#181818;stroke-width:1;" x1="111.9783" x2="111.9783" y1="186.9375" y2="214.4375"/><polygon fill="#181818" points="107.9783,204.4375,111.9783,214.4375,115.9783,204.4375,111.9783,208.4375" style="stroke:#181818;stroke-width:1;stroke-linejoin:miter;stroke-miterlimit:10;"/><line style="stroke:#181818;stroke-width:1;" x1="111.9783" x2="111.9783" y1="132.9688" y2="152.9688"/><polygon fill="#181818" points="107.9783,142.9688,111.9783,152.9688,115.9783,142.9688,111.9783,146.9688" style="stroke:#181818;stroke-width:1;stroke-linejoin:miter;stroke-miterlimit:10;"/><line style="stroke:#181818;stroke-width:1;" x1="148.8856" x2="219.9566" y1="280.4063" y2="280.4063"/><polygon fill="#181818" points="215.9566,206.9375,219.9566,196.9375,223.9566,206.9375,219.9566,202.9375" style="stroke:#181818;stroke-width:1;stroke-linejoin:miter;stroke-miterlimit:10;"/><line style="stroke:#181818;stroke-width:1;" x1="219.9566" x2="219.9566" y1="120.9688" y2="280.4063"/><line style="stroke:#181818;stroke-width:1;" x1="219.9566" x2="123.9783" y1="120.9688" y2="120.9688"/><polygon fill="#181818" points="133.9783,116.9688,123.9783,120.9688,133.9783,124.9688,129.9783,120.9688" style="stroke:#181818;stroke-width:1;stroke-linejoin:miter;stroke-miterlimit:10;"/><line style="stroke:#181818;stroke-width:1;" x1="111.9783" x2="111.9783" y1="248.4063" y2="268.4063"/><polygon fill="#181818" points="107.9783,258.4063,111.9783,268.4063,115.9783,258.4063,111.9783,262.4063" style="stroke:#181818;stroke-width:1;stroke-linejoin:miter;stroke-miterlimit:10;"/><line style="stroke:#181818;stroke-width:1;" x1="111.9783" x2="111.9783" y1="88.9688" y2="108.9688"/><polygon fill="#181818" points="107.9783,98.9688,111.9783,108.9688,115.9783,98.9688,111.9783,102.9688" style="stroke:#181818;stroke-width:1;stroke-linejoin:miter;stroke-miterlimit:10;"/><line style="stroke:#181818;stroke-width:1;" x1="111.9783" x2="111.9783" y1="292.4063" y2="324.1167"/><polygon fill="#181818" points="107.9783,314.1167,111.9783,324.1167,115.9783,314.1167,111.9783,318.1167" style="stroke:#181818;stroke-width:1;stroke-linejoin:miter;stroke-miterlimit:10;"/><line style="stroke:#181818;stroke-width:1;" x1="111.9783" x2="111.9783" y1="358.0854" y2="378.0854"/><polygon fill="#181818" points="107.9783,368.0854,111.9783,378.0854,115.9783,368.0854,111.9783,372.0854" style="stroke:#181818;stroke-width:1;stroke-linejoin:miter;stroke-miterlimit:10;"/><?plantuml-src DOv12e9064RtSuf_gOike8ikO8Tm8IH4YWvqWGbC1wI5eP0WvAPmOLPeK1kFC_FF7JAevSVxUBoGsW4bXhoSrVu8Cv0T4_q0ubRXCnT3QvB0yHsR4W33iXPOta4cDPOSr64dqm94rsALcLykKoOU3M1IJmmqnJcMBy3oFNd67gDyEewzsdACQnKF-jyDcwMxSa3xHSYaGNQTw-26e676P19XNkkmzkYqyqWd1XPCdhX9Gkhv7m00?></g></svg>