<svg xmlns="http://www.w3.org/2000/svg" xmlns:xlink="http://www.w3.org/1999/xlink" version="1.1" data-diagram-type="SEQUENCE" style="width:198px;height:257px;background:#FFFFFF;" width="198px" height="257px" viewBox="0 0 198 257" zoomAndPan="magnify" preserveAspectRatio="none" contentStyleType="text/css"><?plantuml 1.2026.8?><defs/><g font-family="sans-serif" lengthAdjust="spacing"><g><title>.. B</title><rect x="33.407" y="57.594" width="8" height="141.664" fill="#000" fill-opacity="0"/><line x1="36.907" y1="57.594" x2="36.907" y2="199.258" style="stroke:#181818;stroke-width:0.5;stroke-dasharray:5,5;"/></g><g><title>.....</title><rect x="145.26" y="57.594" width="8" height="141.664" fill="#000" fill-opacity="0"/><line x1="148.76" y1="57.594" x2="148.76" y2="199.258" style="stroke:#181818;stroke-width:0.5;stroke-dasharray:5,5;"/></g><rect x="10" y="10" width="53.815" height="46.594" fill="#E2E2F0" style="stroke:#181818;stroke-width:0.5;" rx="2.5" ry="2.5"/><text x="17" y="29.995" fill="#000" font-size="14" textLength="39.815">토픽 B</text><text x="18.565" y="46.292" fill="#000" font-size="14" textLength="36.684">(출력)</text><rect x="109.56" y="10" width="78.4" height="46.594" fill="#E2E2F0" style="stroke:#181818;stroke-width:0.5;" rx="2.5" ry="2.5"/><text x="116.56" y="29.995" fill="#000" font-size="14" textLength="64.4">다운스트림</text><text x="129.44" y="46.292" fill="#000" font-size="14" textLength="38.64">컨슈머</text><rect x="10" y="199.258" width="53.815" height="46.594" fill="#E2E2F0" style="stroke:#181818;stroke-width:0.5;" rx="2.5" ry="2.5"/><text x="17" y="219.253" fill="#000" font-size="14" textLength="39.815">토픽 B</text><text x="18.565" y="235.55" fill="#000" font-size="14" textLength="36.684">(출력)</text><rect x="109.56" y="199.258" width="78.4" height="46.594" fill="#E2E2F0" style="stroke:#181818;stroke-width:0.5;" rx="2.5" ry="2.5"/><text x="116.56" y="219.253" fill="#000" font-size="14" textLength="64.4">다운스트림</text><text x="129.44" y="235.55" fill="#000" font-size="14" textLength="38.64">컨슈머</text><polygon points="47.907,82.727,37.907,86.727,47.907,90.727,43.907,86.727" fill="#181818" style="stroke:#181818;stroke-width:1;stroke-linejoin:miter;stroke-miterlimit:10;"/><line x1="41.907" y1="86.727" x2="147.76" y2="86.727" style="stroke:#181818;stroke-width:1;"/><text x="53.907" y="81.661" fill="#000" font-size="13" textLength="67.266">poll (read)</text><polygon points="136.76,111.859,146.76,115.859,136.76,119.859,140.76,115.859" fill="#181818" style="stroke:#181818;stroke-width:1;stroke-linejoin:miter;stroke-miterlimit:10;"/><line x1="36.907" y1="115.859" x2="142.76" y2="115.859" style="stroke:#181818;stroke-width:1;stroke-dasharray:2,2;"/><text x="43.907" y="110.793" fill="#000" font-size="13" textLength="87.852">커밋된 레코드만</text><path d="M8.854,128.859 L8.854,183.859 L175.854,183.859 L175.854,138.859 L165.854,128.859 L8.854,128.859" style="stroke:#181818;stroke-width:0.5;" fill="#FEFFDD"/><path d="M165.854,128.859 L165.854,138.859 L175.854,138.859 L165.854,128.859" style="stroke:#181818;stroke-width:0.5;" fill="#FEFFDD"/><text x="27.167" y="145.926" fill="#000" font-size="13" textLength="122.332">③ read_committed</text><text x="27.167" y="161.059" fill="#000" font-size="13" textLength="91.985">커밋된 것만 읽고</text><text x="27.167" y="176.192" fill="#000" font-size="13" textLength="114.638">abort·미커밋은 제외</text><?plantuml-src LSr1IiD05CRn_PpYqLKBvW8kN8JWqXC4vDbCT32P2JEZRWL1Ikf2iHibXI1HkrDKQg1cur5STbxkO5fHSFkztvzd3eNCK6CAvW0ZTIBaFiIO6CxCtoNWCHubTbj9kuCf1uFIU8Ph4RCEM34K6KeBlVQyR2SD-A7iqxnmvVsW1sZ0_w_SkABRDyghDg_TmqSeQJ6ZVEHczLe7Z0NWRO4Fcv2f986-vXWDc0zUjmRTIelAFO_TPG6k754pSTU5UxnWKbaEwfXhy3VMxklg3bRjxb2bgR2MHwjVl-tovQohWARDyhKC9UufRJ_VtLFzGsXw2bGMT5D_0m00?></g></svg>