<svg xmlns="http://www.w3.org/2000/svg" xmlns:xlink="http://www.w3.org/1999/xlink" version="1.1" data-diagram-type="ACTIVITY" style="width:390px;height:512px;background:#FFFFFF;" width="390px" height="512px" viewBox="0 0 390 512" zoomAndPan="magnify" preserveAspectRatio="none" contentStyleType="text/css"><?plantuml 1.2026.8?><defs/><g font-family="sans-serif" lengthAdjust="spacing"><g class="title" data-source-line="1"><text x="20" y="32.995" fill="#000" font-size="14" textLength="348.367" font-weight="700">DB 쓰기 유실 + 식별자 공유가 겹쳐 에러가 반복되는 흐름</text></g><ellipse cx="193.184" cy="62.297" rx="10" ry="10" fill="#222" style="stroke:#222;stroke-width:1;"/><rect x="153.185" y="92.297" width="79.998" height="33.969" fill="#F1F1F1" style="stroke:#181818;stroke-width:0.5;" rx="12.5" ry="12.5"/><text x="163.185" y="113.436" fill="#000" font-size="12" textLength="59.998">항목 A 전환</text><rect x="102.725" y="146.266" width="180.917" height="33.969" fill="#F1F1F1" style="stroke:#181818;stroke-width:0.5;" rx="12.5" ry="12.5"/><text x="112.725" y="167.404" fill="#000" font-size="12" textLength="160.917">외부 예약 취소 성공 (실제 삭제)</text><rect x="68.464" y="200.234" width="249.44" height="33.969" fill="#F1F1F1" style="stroke:#181818;stroke-width:0.5;" rx="12.5" ry="12.5"/><text x="78.464" y="221.373" fill="#000" font-size="12" textLength="229.44">markCancelled 유실 → 행은 그대로 예약중</text><rect x="116.238" y="254.203" width="153.891" height="33.969" fill="#F1F1F1" style="stroke:#181818;stroke-width:0.5;" rx="12.5" ry="12.5"/><text x="126.238" y="275.342" fill="#000" font-size="12" textLength="133.891">같은 식별자의 항목 B 전환</text><rect x="79.807" y="308.172" width="226.753" height="33.969" fill="#F1F1F1" style="stroke:#181818;stroke-width:0.5;" rx="12.5" ry="12.5"/><text x="89.807" y="329.311" fill="#000" font-size="12" textLength="206.753">조회가 그 행을 여전히 "예약중"으로 반환</text><rect x="70.965" y="362.141" width="244.437" height="33.969" fill="#F1F1F1" style="stroke:#181818;stroke-width:0.5;" rx="12.5" ry="12.5"/><text x="80.965" y="383.279" fill="#000" font-size="12" textLength="224.437">같은 식별자 재취소 → 이미 사라진 예약 거부</text><rect x="92.889" y="416.109" width="200.59" height="33.969" fill="#F1F1F1" style="stroke:#181818;stroke-width:0.5;" rx="12.5" ry="12.5"/><text x="102.889" y="437.248" fill="#000" font-size="12" textLength="180.59">항목 C·D … 반복 → 에러 반복 발생</text><ellipse cx="193.184" cy="481.078" rx="11" ry="11" fill="none" style="stroke:#222;stroke-width:1;"/><ellipse cx="193.184" cy="481.078" rx="6" ry="6" fill="#222" style="stroke:#222;stroke-width:1;"/><line x1="193.184" y1="72.297" x2="193.184" y2="92.297" style="stroke:#181818;stroke-width:1;"/><polygon points="189.184,82.297,193.184,92.297,197.184,82.297,193.184,86.297" fill="#181818" style="stroke:#181818;stroke-width:1;stroke-linejoin:miter;stroke-miterlimit:10;"/><line x1="193.184" y1="126.266" x2="193.184" y2="146.266" style="stroke:#181818;stroke-width:1;"/><polygon points="189.184,136.266,193.184,146.266,197.184,136.266,193.184,140.266" fill="#181818" style="stroke:#181818;stroke-width:1;stroke-linejoin:miter;stroke-miterlimit:10;"/><line x1="193.184" y1="180.234" x2="193.184" y2="200.234" style="stroke:#181818;stroke-width:1;"/><polygon points="189.184,190.234,193.184,200.234,197.184,190.234,193.184,194.234" fill="#181818" style="stroke:#181818;stroke-width:1;stroke-linejoin:miter;stroke-miterlimit:10;"/><line x1="193.184" y1="234.203" x2="193.184" y2="254.203" style="stroke:#181818;stroke-width:1;"/><polygon points="189.184,244.203,193.184,254.203,197.184,244.203,193.184,248.203" fill="#181818" style="stroke:#181818;stroke-width:1;stroke-linejoin:miter;stroke-miterlimit:10;"/><line x1="193.184" y1="288.172" x2="193.184" y2="308.172" style="stroke:#181818;stroke-width:1;"/><polygon points="189.184,298.172,193.184,308.172,197.184,298.172,193.184,302.172" fill="#181818" style="stroke:#181818;stroke-width:1;stroke-linejoin:miter;stroke-miterlimit:10;"/><line x1="193.184" y1="342.141" x2="193.184" y2="362.141" style="stroke:#181818;stroke-width:1;"/><polygon points="189.184,352.141,193.184,362.141,197.184,352.141,193.184,356.141" fill="#181818" style="stroke:#181818;stroke-width:1;stroke-linejoin:miter;stroke-miterlimit:10;"/><line x1="193.184" y1="396.109" x2="193.184" y2="416.109" style="stroke:#181818;stroke-width:1;"/><polygon points="189.184,406.109,193.184,416.109,197.184,406.109,193.184,410.109" fill="#181818" style="stroke:#181818;stroke-width:1;stroke-linejoin:miter;stroke-miterlimit:10;"/><line x1="193.184" y1="450.078" x2="193.184" y2="470.078" style="stroke:#181818;stroke-width:1;"/><polygon points="189.184,460.078,193.184,470.078,197.184,460.078,193.184,464.078" fill="#181818" style="stroke:#181818;stroke-width:1;stroke-linejoin:miter;stroke-miterlimit:10;"/><?plantuml-src NP3DJeDG48NtFCMaAurlK5QsVH6YB8puaye34BrfgcM1FrKmNAH9Ktz2ussnWadT-2XTCiCxU2cK65StENVcpFcEUM0QEdHQGBSYImMG7z9W33j00uuney21B5v8DHCMPFClYXsW1mUVea90uMAyGCV5gpl8kOCJffoPMjTKclbmYc-li0iKijnpLQL9NegV5f3Rf-4tKF92FHk8pQG_RCcZ5Ff0vrFvRClf8wrxsDQEztJ3qFStiLQz6yZlBudBB4cAjeKZlpAayRNSoeHNVDRXYRjG9MdzIJ8I-QEz9ahIqf19ggWO2FhGg1qRv2-B4vAptFpl3nH45KcHZVW7lgUI8aA-f6UsWSrcGgAhTIljdwG3AsjI5LZkhblTA2Xykk2gRFFaz1S0?></g></svg>